<svg xmlns="http://www.w3.org/2000/svg" viewBox="0 0 680 390" role="img" aria-labelledby="titulo"><title id="titulo">Pistas da caixa</title><rect width="680" height="390" rx="16" fill="#f4f0e7"/><g stroke="#334155" stroke-width="3" stroke-linejoin="round" font-family="Arial, sans-serif" fill="#172b40"><g stroke="none"><text x="26" y="36" font-size="24">Pistas da caixa</text></g><rect x="20" y="60" width="310" height="145" rx="12" fill="#fff"/><rect x="350" y="60" width="310" height="145" rx="12" fill="#fff"/><rect x="20" y="224" width="310" height="145" rx="12" fill="#fff"/><rect x="350" y="224" width="310" height="145" rx="12" fill="#fff"/><g transform="translate(27 13)"><circle cx="84" cy="136" r="36" fill="#e8bd5b"/><path d="M66 103 L45 60 H71 L85 102 L102 60 H125 L101 109" fill="#5995bb"/></g><g transform="translate(337 175)"><path d="M38 94 L73 94 L90 128 L135 140 Q165 150 140 174 H33 Q20 153 38 94 Z" fill="#a2b4d8"/></g><rect x="387" y="84" width="118" height="69" rx="12" fill="#bfe0ef"/><path d="M392 142 L422 109 L443 125 L468 97 L499 146 Z" fill="#7aa46e"/><path d="M125 263 V310 Q125 332 143 332 Q161 332 161 310 V255 Q161 235 145 235 Q135 235 135 253 V310 Q135 318 143 318 Q151 318 151 310 V263" fill="none"/><g stroke="none"><text x="163" y="145" font-size="20">Medalha</text><text x="523" y="138" font-size="20">Foto</text><text x="183" y="303" font-size="20">Clipe</text><text x="515" y="304" font-size="19">Sapatinho</text></g></g></svg>
