<svg xmlns="http://www.w3.org/2000/svg" width="720" height="360" viewBox="0 0 720 360" role="img" aria-labelledby="titulo descricao">
  <title id="titulo">Casa com árvore ao lado e praça em frente</title>
  <desc id="descricao">Uma casa fica no centro da cena. Uma árvore está ao lado esquerdo da casa. Em frente à casa, do outro lado da rua, há uma praça com banco e escorregador.</desc>
  <rect width="720" height="360" rx="24" fill="#dff3ff"/>
  <rect y="214" width="720" height="72" fill="#8f9ba7"/><path d="M20 250h680" stroke="#fff" stroke-width="8" stroke-dasharray="30 22"/>
  <path d="M258 212 360 116l102 96v-8H258Z" fill="#e65f52" stroke="#8f3d42" stroke-width="7" stroke-linejoin="round"/><rect x="278" y="194" width="164" height="74" fill="#ffd26e" stroke="#8f3d42" stroke-width="7"/><rect x="344" y="224" width="34" height="44" fill="#a86b48"/><rect x="298" y="210" width="30" height="28" fill="#fff" stroke="#547799" stroke-width="5"/><rect x="392" y="210" width="30" height="28" fill="#fff" stroke="#547799" stroke-width="5"/>
  <path d="M120 219v-82" stroke="#76533c" stroke-width="16" stroke-linecap="round"/><circle cx="120" cy="112" r="55" fill="#67b75b"/><circle cx="82" cy="135" r="36" fill="#7bcf6a"/><circle cx="155" cy="139" r="38" fill="#7bcf6a"/>
  <rect x="510" y="65" width="164" height="128" rx="18" fill="#9bd987" stroke="#4e9657" stroke-width="6"/><path d="M550 146h65" stroke="#8a5a3c" stroke-width="12" stroke-linecap="round"/><path d="M557 130v28m50-28v28" stroke="#8a5a3c" stroke-width="8"/><path d="M635 151v-54h25l-25 25h-26" fill="none" stroke="#4381c4" stroke-width="8" stroke-linejoin="round"/>
  <g fill="#294766" font-family="Arial, sans-serif" font-size="20" font-weight="700"><text x="62" y="48">Árvore ao lado</text><text x="514" y="48">Praça em frente</text></g>
</svg>
