<svg xmlns="http://www.w3.org/2000/svg" viewBox="0 0 720 410" role="img" aria-labelledby="title"><title id="title">Cartões genéricos de registros e objetos</title><rect width="720" height="410" rx="16" fill="#fff9ed"/><g font-family="Arial, sans-serif" fill="#1e293b" stroke-linejoin="round"><text x="25" y="35" font-size="22">EXEMPLO FICTÍCIO · cartões de brincadeira</text><rect x="25" y="65" width="215" height="145" rx="12" fill="#dbeafe"/><text x="35" y="95" font-size="20">Identidade</text><text x="35" y="123" font-size="14">EXEMPLO FICTÍCIO</text><path d="M45 158L205 158" stroke="#64748b" stroke-width="2" fill="none" stroke-linecap="round"/><path d="M45 178L170 178" stroke="#64748b" stroke-width="2" fill="none" stroke-linecap="round"/><rect x="260" y="65" width="215" height="145" rx="12" fill="#dbeafe"/><text x="270" y="95" font-size="20">Nascimento</text><text x="270" y="123" font-size="14">EXEMPLO FICTÍCIO</text><path d="M280 158L440 158" stroke="#64748b" stroke-width="2" fill="none" stroke-linecap="round"/><path d="M280 178L405 178" stroke="#64748b" stroke-width="2" fill="none" stroke-linecap="round"/><rect x="495" y="65" width="215" height="145" rx="12" fill="#dbeafe"/><text x="505" y="95" font-size="20">Vacinas</text><text x="505" y="123" font-size="14">EXEMPLO FICTÍCIO</text><path d="M515 158L675 158" stroke="#64748b" stroke-width="2" fill="none" stroke-linecap="round"/><path d="M515 178L640 178" stroke="#64748b" stroke-width="2" fill="none" stroke-linecap="round"/><rect x="25" y="230" width="215" height="145" rx="12" fill="#dbeafe"/><text x="35" y="260" font-size="20">Diário</text><text x="35" y="288" font-size="14">EXEMPLO FICTÍCIO</text><rect x="100" y="320" width="50" height="30" rx="2" fill="#fef3c7"/><path d="M125 320L125 350" stroke="#334155" stroke-width="5" fill="none" stroke-linecap="round"/><rect x="260" y="230" width="215" height="145" rx="12" fill="#dbeafe"/><text x="270" y="260" font-size="20">Álbum</text><text x="270" y="288" font-size="14">EXEMPLO FICTÍCIO</text><rect x="335" y="320" width="50" height="30" rx="2" fill="#fef3c7"/><path d="M360 320L360 350" stroke="#334155" stroke-width="5" fill="none" stroke-linecap="round"/><rect x="495" y="230" width="215" height="145" rx="12" fill="#dbeafe"/><text x="505" y="260" font-size="20">Brinquedo</text><text x="505" y="288" font-size="14">EXEMPLO FICTÍCIO</text><path d="M560 342l80 0l-40 25Z" fill="#ef4444"/></g></svg>
